<svg xmlns="http://www.w3.org/2000/svg" version="1.1" xmlns:xlink="http://www.w3.org/1999/xlink" xmlns:svgjs="http://svgjs.com/svgjs" width="1440" height="450" preserveAspectRatio="none" viewBox="0 0 1440 450"><g mask="url(&quot;#SvgjsMask1006&quot;)" fill="none"><rect width="1440" height="450" x="0" y="0" fill="rgba(69, 185, 224, 1)"/><path d="M13 450L463 0L743.5 0L293.5 450z" fill="url(#SvgjsLinearGradient1007)"/><path d="M378.8 450L828.8 0L1014.8 0L564.8 450z" fill="url(#SvgjsLinearGradient1007)"/><path d="M686.6 450L1136.6 0L1595.6 0L1145.6 450z" fill="url(#SvgjsLinearGradient1007)"/><path d="M1432 450L982 0L818.5 0L1268.5 450z" fill="url(#SvgjsLinearGradient1008)"/><path d="M1079.2 450L629.2 0L371.20000000000005 0L821.2 450z" fill="url(#SvgjsLinearGradient1008)"/><path d="M745.4 450L295.4 0L110.89999999999998 0L560.9 450z" fill="url(#SvgjsLinearGradient1008)"/><path d="M1181.202489813371 450L1440 191.2024898133709L1440 450z" fill="url(#SvgjsLinearGradient1007)"/><path d="M0 450L258.7975101866291 450L 0 191.2024898133709z" fill="url(#SvgjsLinearGradient1008)"/></g><defs><mask id="SvgjsMask1006"><rect width="1440" height="450" fill="#ffffff"/></mask><linearGradient x1="0%" y1="100%" x2="100%" y2="0%" id="SvgjsLinearGradient1007"><stop stop-color="rgba(15, 70, 185, 0.2)" offset="0"/><stop stop-opacity="0" stop-color="rgba(15, 70, 185, 0.2)" offset="0.66"/></linearGradient><linearGradient x1="100%" y1="100%" x2="0%" y2="0%" id="SvgjsLinearGradient1008"><stop stop-color="rgba(15, 70, 185, 0.2)" offset="0"/><stop stop-opacity="0" stop-color="rgba(15, 70, 185, 0.2)" offset="0.66"/></linearGradient></defs></svg>